# xmcd CD database file
#
# Track frame offsets:
#	150
#	9912
#	26097
#	34307
#	49227
#	60032
#	74850
#	88607
#	99137
#	110007
#	116865
#	148115
#	167155
#	178787
#	195210
#	206735
#	221247
#	239307
#	244657
#	266962
#	281865
#	292092
#	307115
#	322925
#	334920
#	335840
#
# Disc length: 4612 seconds
#
# Revision: 0
# Processed by: cddbd v1.5.2PL0 Copyright (c) Steve Scherf et al.
# Submitted via: CDex 1.51
#
DISCID=9e12021a
DTITLE=Emsland Hillbillies - Endlich-Bauer Barnes Mühle
DYEAR=1900
DGENRE=Country
TTITLE0=Ich weiss etwas, was keiner weiss
TTITLE1=Liebe Mama
TTITLE2=Country Freak
TTITLE3=Ich liebe meinen Diesel
TTITLE4=Der Geburtstag
TTITLE5=Jungs, ab Morgen
TTITLE6=Popstar
TTITLE7=Endlich
TTITLE8=Hey Hey
TTITLE9=Emsländler (Instrumental)
TTITLE10=Das Alte Lied
TTITLE11=Original Aschendorfer Countryband
TTITLE12=Wieder auf dem Sofa
TTITLE13=Der letzte Joint zum Abschied
TTITLE14=Ich ging ins Casino
TTITLE15=Radarwagen
TTITLE16=Erika´s Sonnenburg der Liebe
TTITLE17=Schröder goes Country (Instrumental)
TTITLE18=Bauer Barnes Mühle
TTITLE19=Cowboy Roadie
TTITLE20=Der Fremde
TTITLE21=Iglu Himmel
TTITLE22=Die gute alte Sonne
TTITLE23=Rechts vom Kanal (Instrumental)
TTITLE24=Der kürzeste Countrysong der Welt
TTITLE25=Fernfahrer Hermann
EXTD=
EXTT0=
EXTT1=
EXTT2=
EXTT3=
EXTT4=
EXTT5=
EXTT6=
EXTT7=
EXTT8=
EXTT9=
EXTT10=
EXTT11=
EXTT12=
EXTT13=
EXTT14=
EXTT15=
EXTT16=
EXTT17=
EXTT18=
EXTT19=
EXTT20=
EXTT21=
EXTT22=
EXTT23=
EXTT24=
EXTT25=
PLAYORDER=
